<svg xmlns="http://www.w3.org/2000/svg" width="48" height="55" viewBox="0 0 48 55"><path fill="#fff" d="M46.19 40.5c-1.37 2.35-4.18 3.55-8.06 3.55-1.54 0-3.25-.2-5.1-.58-2.13 6.73-5.53 10.54-9.53 10.54-4 0-7.4-3.81-9.53-10.53-1.9.39-3.64.58-5.19.58-3.85 0-6.59-1.18-7.97-3.56-1.92-3.31-.39-7.98 4.2-13C.43 22.48-1.11 17.81.8 14.49c1.9-3.27 6.64-4.31 13.16-2.96C16.1 4.8 19.5.99 23.5.99c4 0 7.4 3.81 9.53 10.54 2.06-.43 3.92-.63 5.58-.59 3.64.07 6.25 1.27 7.58 3.55 1.92 3.32.39 7.99-4.2 13.01 4.59 5.02 6.12 9.68 4.2 13zm-28-.6c1.65 6.66 4.13 9.14 5.31 9.14 1.04 0 3.08-1.92 4.68-6.9a54.6 54.6 0 0 1-5.76-2.33 64.43 64.43 0 0 1-4.68-2.43l-.07-.04c.16.86.31 1.74.52 2.56zm-13-1.87c.47.82 2.92 1.56 7.61.61a54.53 54.53 0 0 1-1.05-10.72c-.52.45-1.02.9-1.5 1.36-4.74 4.56-5.62 7.79-5.07 8.75zm9.87-21.14c-6.18-1.71-9.33-.86-9.88.08-.48.83.13 3.39 3.44 7.06a57.7 57.7 0 0 1 8.98-6.33c-.86-.3-1.71-.58-2.54-.81zm13.75-1.8c-1.65-6.65-4.13-9.13-5.31-9.13-1.04 0-3.08 1.92-4.68 6.9 1.87.63 3.8 1.4 5.76 2.33 1.6.75 3.18 1.57 4.68 2.43l.07.04c-.16-.87-.31-1.74-.52-2.57zm1.27 8.93a60.78 60.78 0 0 0-3.35-2.11 61.76 61.76 0 0 0-3.23-1.7c-1.1.54-2.18 1.11-3.22 1.7a60.43 60.43 0 0 0-3.36 2.11c-.07 1.15-.14 2.3-.14 3.48 0 1.18.07 2.33.14 3.48a54.85 54.85 0 0 0 6.58 3.81 55.09 55.09 0 0 0 6.58-3.81c.07-1.15.14-2.3.14-3.48 0-1.18-.07-2.33-.14-3.48zm-.68 13.27c.86.31 1.71.58 2.54.81 6.17 1.72 9.33.87 9.88-.07.48-.84-.13-3.4-3.43-7.06a57.93 57.93 0 0 1-8.99 6.32zm12.42-20.33c-.48-.81-2.93-1.55-7.62-.61a54.72 54.72 0 0 1 1.05 10.73c.52-.45 1.02-.91 1.5-1.36 4.74-4.56 5.62-7.79 5.07-8.76zM26.86 27.5c0-1.83-1.5-3.32-3.36-3.32a3.34 3.34 0 0 0-3.36 3.32c0 1.83 1.5 3.31 3.36 3.31a3.33 3.33 0 0 0 3.36-3.31z"/></svg>