<svg xmlns="http://www.w3.org/2000/svg" width="54" height="53" viewBox="0 0 54 53"><path fill="#87949e" d="M48.88 27.32A33.86 33.86 0 0 1 39 36.9a20.77 20.77 0 0 1-8.64 15.64 2.53 2.53 0 0 1-2.4.27 2.5 2.5 0 0 1-1.5-1.88 21.86 21.86 0 0 0-2.86-7.22c-1.66.45-3.27.82-4.77 1.08a2.49 2.49 0 0 1-2.19-.69L9.9 37.35a2.48 2.48 0 0 1-.69-2.18 52.4 52.4 0 0 1 1.08-4.77 21.78 21.78 0 0 0-7.21-2.86 2.48 2.48 0 0 1-1.61-3.9A20.8 20.8 0 0 1 17.1 15a33.78 33.78 0 0 1 9.57-9.88C33.93.39 42.57 0 51.51 0A2.48 2.48 0 0 1 54 2.48c0 8.59-.4 17.59-5.12 24.84zM29.89 47.54a16.6 16.6 0 0 0 4.55-8.01 55.33 55.33 0 0 1-6.78 2.91 28.03 28.03 0 0 1 2.23 5.1zM6.45 24.11c1.67.52 3.39 1.28 5.1 2.23a55.6 55.6 0 0 1 2.91-6.78 16.47 16.47 0 0 0-8 4.55zM29.4 9.29c-7.92 5.15-13.17 16.27-15.05 25.47l4.9 4.89c9.2-1.87 20.31-7.12 25.47-15.04 3.58-5.49 4.2-12.37 4.3-19.62-7.26.09-14.13.72-19.62 4.3zm7.2 12.27a4.15 4.15 0 1 1 0-8.3 4.15 4.15 0 0 1 0 8.3zM2.6 50.35a.83.83 0 0 0 1.03 1.03l5.95-1.8a4.14 4.14 0 0 0-1.2-8.11 4.15 4.15 0 0 0-3.98 2.94z"/></svg>